<svg xmlns="http://www.w3.org/2000/svg" viewBox="0 0 600 800" fill="none">
  <!-- Adult body (NO neck) - fill=#FFFFFF stroke=#C0C0C0 for tinting -->
  <path d="M345.036 296C349.082 296 352.994 296.722 356.699 298.056C367.156 299.788 376.402 307.643 381.8 319.671L474.417 526.032C475.858 529.242 476.171 532.841 475.584 536.093C475.02 539.218 473.557 542.36 471.03 544.558L470.782 544.768C464.649 549.813 457.357 551.275 450.539 549.253L450.374 548.488L449.867 549.039C442.989 546.756 437.146 541.072 433.549 533.058L394.044 445.036L408.68 712.507C408.831 715.276 408.112 717.983 406.66 720.099C405.26 722.14 402.952 723.888 399.984 723.995L399.695 724H315.012C312.063 724 309.72 722.373 308.257 720.393C306.793 718.411 306.008 715.864 306.008 713.226V534.968H293.992V713.226C293.992 715.864 293.208 718.411 291.744 720.393C290.281 722.373 287.938 724 284.988 724H200.306C197.199 724 194.787 722.206 193.341 720.099C191.89 717.983 191.17 715.276 191.321 712.507L205.992 444.344L166.178 533.058C162.581 541.072 156.738 546.756 149.86 549.039L149.353 548.487L149.188 549.253C142.369 551.275 135.078 549.813 128.944 544.768C126.265 542.563 124.725 539.319 124.143 536.093C123.556 532.841 123.869 529.242 125.31 526.032L217.927 319.671L218.191 319.093C223.712 307.201 233.04 299.508 243.53 297.975C247.168 296.693 251.002 296 254.965 296H345.036Z" fill="#FFFFFF" stroke="#C0C0C0" stroke-width="8" stroke-linejoin="bevel"/>
  <path d="M345.036 300C348.728 300 352.302 300.68 355.697 301.946C364.67 303.292 373.1 310.056 378.15 321.308L470.768 527.67C472.927 532.482 471.796 538.755 468.241 541.679C463.075 545.928 457.149 547.041 451.676 545.418C455.711 541.927 457.04 534.722 454.622 529.052L451.637 522.055C450.394 519.139 447.639 518.139 445.485 519.823C443.331 521.506 442.594 525.235 443.837 528.151L451.127 545.243C445.519 543.381 440.434 538.628 437.198 531.419L388.874 423.748L404.686 712.726C404.901 716.653 402.605 720 399.696 720H315.012C312.249 720 310.008 716.967 310.008 713.226V530.968H289.992V713.226C289.992 716.967 287.752 720 284.988 720H200.306C197.397 720 195.101 716.653 195.316 712.726L211.164 423.053L162.529 531.419C159.293 538.628 154.208 543.381 148.6 545.243L155.89 528.151C157.133 525.235 156.396 521.506 154.242 519.823C152.088 518.139 149.333 519.139 148.09 522.055L145.105 529.052C142.687 534.722 144.016 541.928 148.051 545.418C142.577 547.041 136.652 545.928 131.486 541.679C127.931 538.755 126.799 532.482 128.959 527.67L221.577 321.308C226.712 309.866 235.342 303.062 244.485 301.88C247.825 300.657 251.338 300 254.965 300H345.036Z" fill="#FFFFFF"/>
  <path d="M397.062 478L397.459 490.729L308.57 531H291.936L203.77 490.724L203.969 478H397.062Z" stroke="#D0D0D0" stroke-width="4"/>
</svg>
