<svg xmlns="http://www.w3.org/2000/svg" viewBox="0 0 300 300">
  <!-- Chibi Body: Male Chubby (no head) - Grayscale for tinting -->

  <!-- BACK ARMS (thicker) -->
  <g opacity="0.9">
    <path d="M102,146 C90,152 78,172 74,192 C72,200 72,208 74,214"
      fill="none" stroke="#FFFFFF" stroke-width="28" stroke-linecap="round"/>
    <circle cx="74" cy="218" r="16" fill="#FFFFFF"/>
    <circle cx="67" cy="212" r="7" fill="#FFFFFF"/>
  </g>
  <g opacity="0.9">
    <path d="M198,146 C210,152 222,172 226,192 C228,200 228,208 226,214"
      fill="none" stroke="#FFFFFF" stroke-width="28" stroke-linecap="round"/>
    <circle cx="226" cy="218" r="16" fill="#FFFFFF"/>
    <circle cx="233" cy="212" r="7" fill="#FFFFFF"/>
  </g>

  <!-- NECK (wider) -->
  <rect x="132" y="118" width="36" height="20" rx="12" fill="#FFFFFF"/>

  <!-- TORSO (wide, round) -->
  <path d="M108,136 C100,140 94,156 92,172 C90,188 92,204 100,214
    C108,222 120,226 136,228 L164,228 C180,226 192,222 200,214
    C208,204 210,188 208,172 C206,156 200,140 192,136 Z" fill="#FFFFFF"/>
  <!-- Round tummy -->
  <ellipse cx="150" cy="190" rx="46" ry="32" fill="#FFFFFF"/>
  <ellipse cx="150" cy="190" rx="42" ry="28" fill="#F0F0F0" opacity="0.3"/>

  <!-- HIPS (wider) -->
  <path d="M136,226 C120,228 108,234 104,242 L104,248 L196,248 L196,242
    C192,234 180,228 164,226 Z" fill="#FFFFFF"/>

  <!-- LEGS (thicker) -->
  <path d="M118,246 C114,258 112,270 112,280 C112,286 114,290 116,294"
    fill="none" stroke="#FFFFFF" stroke-width="32" stroke-linecap="round"/>
  <path d="M182,246 C186,258 188,270 188,280 C188,286 186,290 184,294"
    fill="none" stroke="#FFFFFF" stroke-width="32" stroke-linecap="round"/>

  <!-- FEET (bigger) -->
  <ellipse cx="114" cy="296" rx="22" ry="10" fill="#FFFFFF"/>
  <ellipse cx="186" cy="296" rx="22" ry="10" fill="#FFFFFF"/>
</svg>
