<svg xmlns="http://www.w3.org/2000/svg" viewBox="0 0 600 800" fill="none">
  <!-- Child body (NO neck) - fill=#FFFFFF stroke=#C0C0C0 for tinting -->
  <path d="M345 406C348.947 406 352.777 406.525 356.423 407.503C366.445 408.712 375.851 414.341 381.507 423.65L474.051 575.965C477.355 581.405 475.624 588.495 470.184 591.8V591.801C464.109 595.492 457.132 596.458 450.7 595.049L450.553 594.231L450.054 594.897C443.464 593.281 437.476 589.149 433.671 582.887L394.02 517.628L408.592 714.335V714.336C408.966 719.391 405.102 723.722 400.103 723.987L399.616 724H315C310.03 724 306 719.971 306 715V614H294V715C294 719.971 289.97 724 285 724H200.384C195.152 724 191.023 719.554 191.409 714.336V714.335L206.015 517.117L166.056 582.887C162.251 589.15 156.263 593.281 149.673 594.897L149.173 594.231L149.027 595.049C142.595 596.458 135.617 595.492 129.542 591.801V591.8C124.102 588.495 122.371 581.405 125.676 575.965L218.22 423.65C223.969 414.19 233.589 408.527 243.796 407.445C247.375 406.505 251.131 406 255 406H345Z" fill="#FFFFFF" stroke="#C0C0C0" stroke-width="8" stroke-linejoin="bevel"/>
  <path d="M345 410C348.689 410 352.261 410.502 355.652 411.437C364.618 412.43 373.042 417.422 378.088 425.728L470.632 578.042C472.79 581.594 471.659 586.224 468.107 588.382C462.945 591.518 457.024 592.34 451.556 591.142C455.587 588.566 456.915 583.247 454.499 579.062L451.517 573.897C450.274 571.745 447.521 571.008 445.369 572.25C443.217 573.493 442.48 576.245 443.723 578.397L451.007 591.013C445.403 589.638 440.322 586.13 437.089 580.81L388.803 501.338L404.602 714.631C404.817 717.53 402.523 720 399.616 720H315C312.239 720 310 717.761 310 715V610H290V715C290 717.761 287.761 720 285 720H200.385C197.478 720 195.184 717.53 195.398 714.631L211.234 500.825L162.638 580.81C159.405 586.13 154.324 589.638 148.72 591.013L156.004 578.397C157.246 576.245 156.509 573.493 154.357 572.25C152.205 571.007 149.452 571.745 148.21 573.897L145.227 579.062C142.811 583.248 144.139 588.566 148.171 591.142C142.702 592.34 136.781 591.518 131.619 588.382C128.067 586.224 126.937 581.594 129.095 578.042L221.639 425.728C226.77 417.282 235.393 412.26 244.528 411.388C247.866 410.485 251.376 410 255 410H345Z" fill="#FFFFFF"/>
  <path d="M397.062 558L397.459 570.729L308.569 611H291.936L203.77 570.724L203.969 558H397.062Z" stroke="#D0D0D0" stroke-width="4"/>
</svg>
