<svg xmlns="http://www.w3.org/2000/svg" viewBox="0 0 300 300">
  <!-- Chibi Body: Female Chubby (no head) - Grayscale for tinting -->

  <!-- BACK ARMS -->
  <g opacity="0.9">
    <path d="M104,148 C94,154 84,172 80,190 C78,198 78,206 80,212"
      fill="none" stroke="#FFFFFF" stroke-width="26" stroke-linecap="round"/>
    <circle cx="80" cy="216" r="15" fill="#FFFFFF"/>
    <circle cx="73" cy="210" r="7" fill="#FFFFFF"/>
  </g>
  <g opacity="0.9">
    <path d="M196,148 C206,154 216,172 220,190 C222,198 222,206 220,212"
      fill="none" stroke="#FFFFFF" stroke-width="26" stroke-linecap="round"/>
    <circle cx="220" cy="216" r="15" fill="#FFFFFF"/>
    <circle cx="227" cy="210" r="7" fill="#FFFFFF"/>
  </g>

  <!-- NECK -->
  <rect x="134" y="118" width="32" height="20" rx="12" fill="#FFFFFF"/>

  <!-- TORSO (wider, rounder) -->
  <path d="M112,138 C106,142 100,156 98,170 C96,184 98,198 104,208
    C110,216 120,222 134,224 L166,224 C180,222 190,216 196,208
    C202,198 204,184 202,170 C200,156 194,142 188,138 Z" fill="#FFFFFF"/>
  <ellipse cx="150" cy="185" rx="40" ry="28" fill="#FFFFFF"/>
  <ellipse cx="150" cy="185" rx="36" ry="24" fill="#F0F0F0" opacity="0.3"/>

  <!-- HIPS -->
  <path d="M134,222 C122,224 112,230 108,238 L108,244 L192,244 L192,238
    C188,230 178,224 166,222 Z" fill="#FFFFFF"/>

  <!-- LEGS -->
  <path d="M120,242 C116,254 114,266 114,276 C114,282 116,286 118,290"
    fill="none" stroke="#FFFFFF" stroke-width="30" stroke-linecap="round"/>
  <path d="M180,242 C184,254 186,266 186,276 C186,282 184,286 182,290"
    fill="none" stroke="#FFFFFF" stroke-width="30" stroke-linecap="round"/>

  <!-- FEET -->
  <ellipse cx="116" cy="294" rx="20" ry="9" fill="#FFFFFF"/>
  <ellipse cx="184" cy="294" rx="20" ry="9" fill="#FFFFFF"/>
</svg>
