<svg viewBox="148 154 512 510" fill="none" xmlns="http://www.w3.org/2000/svg">

  <!-- Hearts pattern masked to dress shape -->
  <mask id="dress-mask" style="mask-type:alpha" maskUnits="userSpaceOnUse" x="158" y="393" width="286" height="261">
    <path d="M272 402C272 417.464 284.536 430 300 430C315.464 430 328 417.464 328 402V398.035C333.584 398.238 338.978 399.383 343.999 401.34L345.104 401.786L347.377 402.736L347.551 405.195C351.003 454.117 370.28 493.866 395.387 510.5L396.595 511.301L438.087 650H164.159L202.537 511.839L203.825 511.014C229.471 494.595 249.204 454.136 252.512 404.271L252.687 401.637L255.178 400.762C260.289 398.967 265.759 398 271.403 398H272V402Z" fill="white"/>
  </mask>
  <g mask="url(#dress-mask)">
    <!-- Row 1 -->
    <path d="M218 432 C218 426, 224 420, 230 426 L232 428 L234 426 C240 420, 246 426, 246 432 C246 438, 232 448, 232 448 C232 448, 218 438, 218 432Z" fill="#FF00FF"/>
    <path d="M282 432 C282 426, 288 420, 294 426 L296 428 L298 426 C304 420, 310 426, 310 432 C310 438, 296 448, 296 448 C296 448, 282 438, 282 432Z" fill="#FF00FF"/>
    <path d="M346 432 C346 426, 352 420, 358 426 L360 428 L362 426 C368 420, 374 426, 374 432 C374 438, 360 448, 360 448 C360 448, 346 438, 346 432Z" fill="#FF00FF"/>
    <!-- Row 2 (offset) -->
    <path d="M250 480 C250 474, 256 468, 262 474 L264 476 L266 474 C272 468, 278 474, 278 480 C278 486, 264 496, 264 496 C264 496, 250 486, 250 480Z" fill="#FF00FF"/>
    <path d="M314 480 C314 474, 320 468, 326 474 L328 476 L330 474 C336 468, 342 474, 342 480 C342 486, 328 496, 328 496 C328 496, 314 486, 314 480Z" fill="#FF00FF"/>
    <!-- Row 3 -->
    <path d="M210 528 C210 522, 216 516, 222 522 L224 524 L226 522 C232 516, 238 522, 238 528 C238 534, 224 544, 224 544 C224 544, 210 534, 210 528Z" fill="#FF00FF"/>
    <path d="M282 528 C282 522, 288 516, 294 522 L296 524 L298 522 C304 516, 310 522, 310 528 C310 534, 296 544, 296 544 C296 544, 282 534, 282 528Z" fill="#FF00FF"/>
    <path d="M354 528 C354 522, 360 516, 366 522 L368 524 L370 522 C376 516, 382 522, 382 528 C382 534, 368 544, 368 544 C368 544, 354 534, 354 528Z" fill="#FF00FF"/>
    <!-- Row 4 (offset) -->
    <path d="M240 576 C240 570, 246 564, 252 570 L254 572 L256 570 C262 564, 268 570, 268 576 C268 582, 254 592, 254 592 C254 592, 240 582, 240 576Z" fill="#FF00FF"/>
    <path d="M320 576 C320 570, 326 564, 332 570 L334 572 L336 570 C342 564, 348 570, 348 576 C348 582, 334 592, 334 592 C334 592, 320 582, 320 576Z" fill="#FF00FF"/>
    <!-- Row 5 -->
    <path d="M220 624 C220 618, 226 612, 232 618 L234 620 L236 618 C242 612, 248 618, 248 624 C248 630, 234 640, 234 640 C234 640, 220 630, 220 624Z" fill="#FF00FF"/>
    <path d="M290 624 C290 618, 296 612, 302 618 L304 620 L306 618 C312 612, 318 618, 318 624 C318 630, 304 640, 304 640 C304 640, 290 630, 290 624Z" fill="#FF00FF"/>
    <path d="M360 624 C360 618, 366 612, 372 618 L374 620 L376 618 C382 612, 388 618, 388 624 C388 630, 374 640, 374 640 C374 640, 360 630, 360 624Z" fill="#FF00FF"/>
  </g>

</svg>