<svg viewBox="148 154 512 512" fill="none" xmlns="http://www.w3.org/2000/svg">

  <!-- Stars pattern masked to dress shape -->
  <mask id="dress-mask" style="mask-type:alpha" maskUnits="userSpaceOnUse" x="158" y="393" width="286" height="261">
    <path d="M272 402C272 417.464 284.536 430 300 430C315.464 430 328 417.464 328 402V398.035C333.584 398.238 338.978 399.383 343.999 401.34L345.104 401.786L347.377 402.736L347.551 405.195C351.003 454.117 370.28 493.866 395.387 510.5L396.595 511.301L438.087 650H164.159L202.537 511.839L203.825 511.014C229.471 494.595 249.204 454.136 252.512 404.271L252.687 401.637L255.178 400.762C260.289 398.967 265.759 398 271.403 398H272V402Z" fill="white"/>
  </mask>
  <g mask="url(#dress-mask)">
    <!-- Stars as 5-pointed polygons -->
    <polygon points="232,425 236,437 248,437 238,444 242,456 232,449 222,456 226,444 216,437 228,437" fill="#FF00FF"/>
    <polygon points="300,425 304,437 316,437 306,444 310,456 300,449 290,456 294,444 284,437 296,437" fill="#FF00FF"/>
    <polygon points="368,425 372,437 384,437 374,444 378,456 368,449 358,456 362,444 352,437 364,437" fill="#FF00FF"/>
    <polygon points="200,475 204,487 216,487 206,494 210,506 200,499 190,506 194,494 184,487 196,487" fill="#FF00FF"/>
    <polygon points="268,475 272,487 284,487 274,494 278,506 268,499 258,506 262,494 252,487 264,487" fill="#FF00FF"/>
    <polygon points="336,475 340,487 352,487 342,494 346,506 336,499 326,506 330,494 320,487 332,487" fill="#FF00FF"/>
    <polygon points="404,475 408,487 420,487 410,494 414,506 404,499 394,506 398,494 388,487 400,487" fill="#FF00FF"/>
    <polygon points="232,525 236,537 248,537 238,544 242,556 232,549 222,556 226,544 216,537 228,537" fill="#FF00FF"/>
    <polygon points="300,525 304,537 316,537 306,544 310,556 300,549 290,556 294,544 284,537 296,537" fill="#FF00FF"/>
    <polygon points="368,525 372,537 384,537 374,544 378,556 368,549 358,556 362,544 352,537 364,537" fill="#FF00FF"/>
    <polygon points="200,575 204,587 216,587 206,594 210,606 200,599 190,606 194,594 184,587 196,587" fill="#FF00FF"/>
    <polygon points="268,575 272,587 284,587 274,594 278,606 268,599 258,606 262,594 252,587 264,587" fill="#FF00FF"/>
    <polygon points="336,575 340,587 352,587 342,594 346,606 336,599 326,606 330,594 320,587 332,587" fill="#FF00FF"/>
    <polygon points="404,575 408,587 420,587 410,594 414,606 404,599 394,606 398,594 388,587 400,587" fill="#FF00FF"/>
    <polygon points="232,625 236,637 248,637 238,644 242,656 232,649 222,656 226,644 216,637 228,637" fill="#FF00FF"/>
    <polygon points="300,625 304,637 316,637 306,644 310,656 300,649 290,656 294,644 284,637 296,637" fill="#FF00FF"/>
    <polygon points="368,625 372,637 384,637 374,644 378,656 368,649 358,656 362,644 352,637 364,637" fill="#FF00FF"/>
  </g>

</svg>