<svg width="600" height="800" viewBox="0 0 600 800" fill="none" xmlns="http://www.w3.org/2000/svg">
<rect width="600" height="800" fill="white"/>
<path d="M345.036 296C349.082 296 352.994 296.722 356.699 298.056C367.156 299.788 376.402 307.643 381.8 319.671L474.417 526.032C475.858 529.242 476.171 532.841 475.584 536.093C475.02 539.218 473.557 542.36 471.03 544.558L470.782 544.768C464.649 549.813 457.357 551.275 450.539 549.253L450.374 548.488L449.867 549.039C442.989 546.756 437.146 541.072 433.549 533.058L394.044 445.036L408.68 712.507C408.831 715.276 408.112 717.983 406.66 720.099C405.26 722.14 402.952 723.888 399.984 723.995L399.695 724H315.012C312.063 724 309.72 722.373 308.257 720.393C306.793 718.411 306.008 715.864 306.008 713.226V534.968H293.992V713.226C293.992 715.864 293.208 718.411 291.744 720.393C290.281 722.373 287.938 724 284.988 724H200.306C197.199 724 194.787 722.206 193.341 720.099C191.89 717.983 191.17 715.276 191.321 712.507L205.992 444.344L166.178 533.058C162.581 541.072 156.738 546.756 149.86 549.039L149.353 548.487L149.188 549.253C142.369 551.275 135.078 549.813 128.944 544.768C126.265 542.563 124.725 539.319 124.143 536.093C123.556 532.841 123.869 529.242 125.31 526.032L217.927 319.671L218.191 319.093C223.712 307.201 233.04 299.508 243.53 297.975C247.168 296.693 251.002 296 254.965 296H345.036ZM151.989 523.213C151.922 523.311 151.845 523.444 151.769 523.624L148.784 530.622C148.015 532.426 147.751 534.511 147.974 536.514L152.21 526.582C152.49 525.926 152.572 525.089 152.416 524.301C152.313 523.779 152.138 523.428 151.989 523.213ZM447.736 523.213C447.587 523.428 447.414 523.779 447.311 524.301C447.155 525.089 447.237 525.926 447.517 526.582L451.752 536.514C451.975 534.511 451.712 532.426 450.943 530.622L447.958 523.624C447.881 523.444 447.804 523.311 447.736 523.213Z" stroke="#D1BAA3" stroke-width="8" stroke-linejoin="bevel"/>
<path d="M345.036 300C348.728 300 352.302 300.68 355.697 301.946C364.67 303.292 373.1 310.056 378.15 321.308L470.768 527.67C472.927 532.482 471.796 538.755 468.241 541.679C463.075 545.928 457.149 547.041 451.676 545.418C455.711 541.927 457.04 534.722 454.622 529.052L451.637 522.055C450.394 519.139 447.639 518.139 445.485 519.823C443.331 521.506 442.594 525.235 443.837 528.151L451.127 545.243C445.519 543.381 440.434 538.628 437.198 531.419L388.874 423.748L404.686 712.726C404.901 716.653 402.605 720 399.696 720H315.012C312.249 720 310.008 716.967 310.008 713.226V530.968H289.992V713.226C289.992 716.967 287.752 720 284.988 720H200.306C197.397 720 195.101 716.653 195.316 712.726L211.164 423.053L162.529 531.419C159.293 538.628 154.208 543.381 148.6 545.243L155.89 528.151C157.133 525.235 156.396 521.506 154.242 519.823C152.088 518.139 149.333 519.139 148.09 522.055L145.105 529.052C142.687 534.722 144.016 541.928 148.051 545.418C142.577 547.041 136.652 545.928 131.486 541.679C127.931 538.755 126.799 532.482 128.959 527.67L221.577 321.308C226.712 309.866 235.342 303.062 244.485 301.88C247.825 300.657 251.338 300 254.965 300H345.036Z" fill="#FFE8D1"/>
<path d="M397.062 478L397.459 490.729L308.57 531H291.936L203.77 490.724L203.969 478H397.062Z" stroke="#D1BAA3" stroke-width="4"/>
<path d="M300 248C313.255 248 324 258.745 324 272V292C324 305.255 313.255 316 300 316C286.745 316 276 305.255 276 292V272C276 258.745 286.745 248 300 248Z" fill="#FFE8D1" stroke="#D1BAA3" stroke-width="8"/>
<path d="M294 715C294 719.971 289.971 724 285 724L180 724C175.03 724 171 719.971 171 715L171 700C171 686.745 181.745 676 195 676L270 676L270.619 676.008C283.588 676.336 294 686.952 294 700L294 715Z" fill="#A3A3A3" stroke="#838282" stroke-width="8"/>
<path d="M429 715C429 719.971 424.971 724 420 724L315 724C310.03 724 306 719.971 306 715L306 700C306 686.745 316.745 676 330 676L405 676L405.619 676.008C418.588 676.336 429 686.952 429 700L429 715Z" fill="#A3A3A3" stroke="#838282" stroke-width="8"/>
<path d="M191 158C176.641 158 165 169.641 165 184C165 198.359 176.641 210 191 210H217V158H191Z" fill="#FFE8D1"/>
<path d="M191 158C176.641 158 165 169.641 165 184C165 198.359 176.641 210 191 210H217V158H191Z" stroke="#D1BAA3" stroke-width="8"/>
<path d="M191 158C176.641 158 165 169.641 165 184C165 198.359 176.641 210 191 210H217V158H191Z" stroke="#D1BAA3" stroke-width="8"/>
<path d="M410 158C424.36 158 436 169.641 436 184C436 198.359 424.36 210 410 210H384V158H410Z" fill="#FFE8D1"/>
<path d="M410 158C424.36 158 436 169.641 436 184C436 198.359 424.36 210 410 210H384V158H410Z" stroke="#D1BAA3" stroke-width="8"/>
<path d="M410 158C424.36 158 436 169.641 436 184C436 198.359 424.36 210 410 210H384V158H410Z" stroke="#D1BAA3" stroke-width="8"/>
<path d="M325 76C371.392 76 409 113.608 409 160V200C409 246.392 371.392 284 325 284H275C228.608 284 191 246.392 191 200V160C191 113.608 228.608 76 275 76H325Z" fill="#FFE8D1" stroke="#D1BAA3" stroke-width="8"/>
<path d="M265 149C280.464 149 293 161.536 293 177C293 192.464 280.464 205 265 205C249.536 205 237 192.464 237 177C237 161.536 249.536 149 265 149Z" fill="white" stroke="#B29797" stroke-width="4"/>
<ellipse cx="270.5" cy="179.5" rx="16.5" ry="20.5" fill="#634848"/>
<path d="M337 149C352.464 149 365 161.536 365 177C365 192.464 352.464 205 337 205C321.536 205 309 192.464 309 177C309 161.536 321.536 149 337 149Z" fill="white" stroke="#B29797" stroke-width="4"/>
<ellipse cx="342.5" cy="179.5" rx="16.5" ry="20.5" fill="#634848"/>
<circle cx="301" cy="207" r="7" fill="#D1BAA3"/>
<mask id="path-15-inside-1_1_10" fill="white">
<path d="M325 223C327.762 223 330 225.239 330 228V228C330 244.569 316.569 258 300 258V258C283.432 258 270 244.569 270 228V228C270 225.239 272.239 223 275 223L325 223Z"/>
</mask>
<path d="M325 223C327.762 223 330 225.239 330 228V228C330 244.569 316.569 258 300 258V258C283.432 258 270 244.569 270 228V228C270 225.239 272.239 223 275 223L325 223Z" fill="#FFE8D1" stroke="#FFA7A7" stroke-width="16" mask="url(#path-15-inside-1_1_10)"/>
</svg>
