<svg width="600" height="800" viewBox="0 0 600 800" fill="none" xmlns="http://www.w3.org/2000/svg">
<rect width="600" height="800" fill="white"/>
<path d="M345 406C348.947 406 352.777 406.525 356.423 407.503C366.445 408.712 375.851 414.341 381.507 423.65L474.051 575.965C477.355 581.405 475.624 588.495 470.184 591.8V591.801C464.109 595.492 457.132 596.458 450.7 595.049L450.553 594.231L450.054 594.897C443.464 593.281 437.476 589.149 433.671 582.887L394.02 517.628L408.592 714.335V714.336C408.966 719.391 405.102 723.722 400.103 723.987L399.616 724H315C310.03 724 306 719.971 306 715V614H294V715C294 719.971 289.97 724 285 724H200.384C195.152 724 191.023 719.554 191.409 714.336V714.335L206.015 517.117L166.056 582.887C162.251 589.15 156.263 593.281 149.673 594.897L149.173 594.231L149.027 595.049C142.595 596.458 135.617 595.492 129.542 591.801V591.8C124.102 588.495 122.371 581.405 125.676 575.965L218.22 423.65C223.969 414.19 233.589 408.527 243.796 407.445C247.375 406.505 251.131 406 255 406H345ZM152.357 575.714C152.148 575.593 151.887 575.641 151.733 575.815L151.674 575.897L148.691 581.062C148.129 582.035 147.933 583.12 148.058 584.157L152.54 576.397L152.582 576.305C152.655 576.084 152.566 575.834 152.357 575.714ZM448.052 575.897C447.932 575.688 447.682 575.599 447.461 575.673L447.369 575.714C447.131 575.852 447.048 576.158 447.186 576.397L451.667 584.157C451.783 583.198 451.624 582.198 451.154 581.282L451.035 581.062L448.052 575.897Z" stroke="#D1BAA3" stroke-width="8" stroke-linejoin="bevel"/>
<path d="M345 410C348.689 410 352.261 410.502 355.652 411.437C364.618 412.43 373.042 417.422 378.088 425.728L470.632 578.042C472.79 581.594 471.659 586.224 468.107 588.382C462.945 591.518 457.024 592.34 451.556 591.142C455.587 588.566 456.915 583.247 454.499 579.062L451.517 573.897C450.274 571.745 447.521 571.008 445.369 572.25C443.217 573.493 442.48 576.245 443.723 578.397L451.007 591.013C445.403 589.638 440.322 586.13 437.089 580.81L388.803 501.338L404.602 714.631C404.817 717.53 402.523 720 399.616 720H315C312.239 720 310 717.761 310 715V610H290V715C290 717.761 287.761 720 285 720H200.385C197.478 720 195.184 717.53 195.398 714.631L211.234 500.825L162.638 580.81C159.405 586.13 154.324 589.638 148.72 591.013L156.004 578.397C157.246 576.245 156.509 573.493 154.357 572.25C152.205 571.007 149.452 571.745 148.21 573.897L145.227 579.062C142.811 583.248 144.139 588.566 148.171 591.142C142.702 592.34 136.781 591.518 131.619 588.382C128.067 586.224 126.937 581.594 129.095 578.042L221.639 425.728C226.77 417.282 235.393 412.26 244.528 411.388C247.866 410.485 251.376 410 255 410H345Z" fill="#FFE8D1"/>
<path d="M397.062 558L397.459 570.729L308.569 611H291.936L203.77 570.724L203.969 558H397.062Z" stroke="#D1BAA3" stroke-width="4"/>
<path d="M300 358C313.255 358 324 368.745 324 382V402C324 415.255 313.255 426 300 426C286.745 426 276 415.255 276 402V382C276 368.745 286.745 358 300 358Z" fill="#FFE8D1" stroke="#D1BAA3" stroke-width="8"/>
<path d="M294 715C294 719.971 289.971 724 285 724L180 724C175.029 724 171 719.971 171 715L171 700C171 686.745 181.745 676 195 676L270 676L270.619 676.008C283.588 676.336 294 686.952 294 700L294 715Z" fill="#A3A3A3" stroke="#838282" stroke-width="8"/>
<path d="M429 715C429 719.971 424.971 724 420 724L315 724C310.029 724 306 719.971 306 715L306 700C306 686.745 316.745 676 330 676L405 676L405.619 676.008C418.588 676.336 429 686.952 429 700L429 715Z" fill="#A3A3A3" stroke="#838282" stroke-width="8"/>
<path d="M191 268C176.641 268 165 279.641 165 294C165 308.359 176.641 320 191 320H217V268H191Z" fill="#FFE8D1"/>
<path d="M191 268C176.641 268 165 279.641 165 294C165 308.359 176.641 320 191 320H217V268H191Z" stroke="#D1BAA3" stroke-width="8"/>
<path d="M191 268C176.641 268 165 279.641 165 294C165 308.359 176.641 320 191 320H217V268H191Z" stroke="#D1BAA3" stroke-width="8"/>
<path d="M410 268C424.359 268 436 279.641 436 294C436 308.359 424.359 320 410 320H384V268H410Z" fill="#FFE8D1"/>
<path d="M410 268C424.359 268 436 279.641 436 294C436 308.359 424.359 320 410 320H384V268H410Z" stroke="#D1BAA3" stroke-width="8"/>
<path d="M410 268C424.359 268 436 279.641 436 294C436 308.359 424.359 320 410 320H384V268H410Z" stroke="#D1BAA3" stroke-width="8"/>
<path d="M325 186C371.392 186 409 223.608 409 270V310C409 356.392 371.392 394 325 394H275C228.608 394 191 356.392 191 310V270C191 223.608 228.608 186 275 186H325Z" fill="#FFE8D1" stroke="#D1BAA3" stroke-width="8"/>
<path d="M265 259C280.464 259 293 271.536 293 287C293 302.464 280.464 315 265 315C249.536 315 237 302.464 237 287C237 271.536 249.536 259 265 259Z" fill="white" stroke="#B29797" stroke-width="4"/>
<ellipse cx="270.5" cy="289.5" rx="16.5" ry="20.5" fill="#634848"/>
<path d="M337 259C352.464 259 365 271.536 365 287C365 302.464 352.464 315 337 315C321.536 315 309 302.464 309 287C309 271.536 321.536 259 337 259Z" fill="white" stroke="#B29797" stroke-width="4"/>
<ellipse cx="342.5" cy="289.5" rx="16.5" ry="20.5" fill="#634848"/>
<circle cx="301" cy="317" r="7" fill="#D1BAA3"/>
<mask id="path-15-inside-1_1_2" fill="white">
<path d="M325 333C327.761 333 330 335.239 330 338V338C330 354.569 316.569 368 300 368V368C283.431 368 270 354.569 270 338V338C270 335.239 272.239 333 275 333L325 333Z"/>
</mask>
<path d="M325 333C327.761 333 330 335.239 330 338V338C330 354.569 316.569 368 300 368V368C283.431 368 270 354.569 270 338V338C270 335.239 272.239 333 275 333L325 333Z" fill="#FFE8D1" stroke="#FFA7A7" stroke-width="16" mask="url(#path-15-inside-1_1_2)"/>
</svg>
