<svg viewBox="-12 -109 323 919" fill="none" xmlns="http://www.w3.org/2000/svg">

  <path xmlns="http://www.w3.org/2000/svg" d="M0,800v-800h600v800z" id="imported-0" fill="none" fill-rule="nonzero" stroke="none" stroke-width="1" stroke-linecap="butt" stroke-linejoin="miter" stroke-miterlimit="10" stroke-dasharray="" stroke-dashoffset="0" font-family="none" font-weight="none" font-size="none" text-anchor="none" style="mix-blend-mode: normal"/>
  <path xmlns="http://www.w3.org/2000/svg" d="M0,800v-800h600v800z" id="imported-1" fill="none" fill-rule="nonzero" stroke="none" stroke-width="1" stroke-linecap="butt" stroke-linejoin="miter" stroke-miterlimit="10" stroke-dasharray="" stroke-dashoffset="0" font-family="none" font-weight="none" font-size="none" text-anchor="none" style="mix-blend-mode: normal"/>
  <path xmlns="http://www.w3.org/2000/svg" d="M300.44434,557.47008c-30,0 -95.81944,-9.33333 -95.81944,-9.33333c0,0 -17.75725,129.63603 -19.70519,155.81912c-1.94794,26.18309 111.2587,23.3798 111.35936,2.64599c0.10067,-20.73381 3.72034,-98.46512 3.72034,-98.46512c0,0 3.23831,80.52201 4.65165,98.50646c1.41333,17.98445 112.37717,23.49575 110.42923,-2.68734c-1.94794,-26.18309 -19.70519,-155.81912 -19.70519,-155.81912c0,0 -64.93075,9.33332 -94.93075,9.33332z" id="imported-2" fill="#ff00ff" fill-rule="nonzero" stroke="#cc00cc" stroke-width="8" stroke-linecap="butt" stroke-linejoin="round" stroke-miterlimit="10" stroke-dasharray="" stroke-dashoffset="0" font-family="none" font-weight="none" font-size="none" text-anchor="none" style="mix-blend-mode: normal"/>

</svg>