<svg viewBox="-18 -99 441 909" fill="none" xmlns="http://www.w3.org/2000/svg">

  <path xmlns="http://www.w3.org/2000/svg" d="M0,800v-800h600v800z" id="imported-0" fill="none" fill-rule="nonzero" stroke="none" stroke-width="1" stroke-linecap="butt" stroke-linejoin="miter" stroke-miterlimit="10" stroke-dasharray="" stroke-dashoffset="0" font-family="none" font-weight="none" font-size="none" text-anchor="none" style="mix-blend-mode: normal"/>
  <path xmlns="http://www.w3.org/2000/svg" d="M164,272c0,-75.11073 60.88927,-136 136,-136c75.11073,0 136,60.88927 136,136c0,75.11073 -60.88927,136 -136,136c-75.11073,0 -136,-60.88927 -136,-136z" id="imported-1" fill="#ff00ff" fill-rule="nonzero" stroke="#cc00cc" stroke-width="3" stroke-linecap="butt" stroke-linejoin="miter" stroke-miterlimit="10" stroke-dasharray="" stroke-dashoffset="0" font-family="none" font-weight="none" font-size="none" text-anchor="none" style="mix-blend-mode: normal"/>
  <path xmlns="http://www.w3.org/2000/svg" d="M412.5,193.75c36.66667,16.66667 57.33333,46.66667 62,90c5.33333,53.33333 2,106.66667 -10,160c-6.66667,20 -15.66667,24 -27,12c-3.33333,-24.66667 -3.33333,-58.66667 0,-102c3.33333,-46.66667 -1.66667,-88.33333 -15,-125z" id="imported-2" fill="#ff00ff" fill-rule="nonzero" stroke="#cc00cc" stroke-width="3" stroke-linecap="butt" stroke-linejoin="miter" stroke-miterlimit="10" stroke-dasharray="" stroke-dashoffset="0" font-family="none" font-weight="none" font-size="none" text-anchor="none" style="mix-blend-mode: normal"/>
  <path xmlns="http://www.w3.org/2000/svg" d="M378,218c0,-4.97056 6.26801,-9 14,-9c7.73199,0 14,4.02944 14,9c0,4.97056 -6.26801,9 -14,9c-7.73199,0 -14,-4.02944 -14,-9z" id="imported-3" fill="#cc00cc" fill-rule="nonzero" stroke="none" stroke-width="1" stroke-linecap="butt" stroke-linejoin="miter" stroke-miterlimit="10" stroke-dasharray="" stroke-dashoffset="0" font-family="none" font-weight="none" font-size="none" text-anchor="none" style="mix-blend-mode: normal"/>

</svg>