<svg viewBox="227 235 148 90" fill="none" xmlns="http://www.w3.org/2000/svg">

  <!-- Left eye white -->
  <path d="M265 259C280.464 259 293 271.536 293 287C293 302.464 280.464 315 265 315C249.536 315 237 302.464 237 287C237 271.536 249.536 259 265 259Z" fill="white" stroke="#B29797" stroke-width="4"/>
  <!-- Left iris -->
  <ellipse cx="270.5" cy="289.5" rx="16.5" ry="20.5" fill="#FF00FF"/>
  <!-- Left lashes -->
  <path d="M247 267 Q248 257 244 252" stroke="#3D2B2B" stroke-width="2.5" stroke-linecap="round" fill="none"/>
  <path d="M258 261 Q259 250 256 245" stroke="#3D2B2B" stroke-width="2.5" stroke-linecap="round" fill="none"/>
  <path d="M271 260 Q274 250 279 247" stroke="#3D2B2B" stroke-width="2.5" stroke-linecap="round" fill="none"/>
  <path d="M282 264 Q287 256 292 254" stroke="#3D2B2B" stroke-width="2" stroke-linecap="round" fill="none"/>
  <!-- Right eye white -->
  <path d="M337 259C352.464 259 365 271.536 365 287C365 302.464 352.464 315 337 315C321.536 315 309 302.464 309 287C309 271.536 321.536 259 337 259Z" fill="white" stroke="#B29797" stroke-width="4"/>
  <!-- Right iris -->
  <ellipse cx="342.5" cy="289.5" rx="16.5" ry="20.5" fill="#FF00FF"/>
  <!-- Right lashes -->
  <path d="M320 264 Q315 256 310 254" stroke="#3D2B2B" stroke-width="2" stroke-linecap="round" fill="none"/>
  <path d="M331 260 Q328 250 323 247" stroke="#3D2B2B" stroke-width="2.5" stroke-linecap="round" fill="none"/>
  <path d="M344 261 Q343 250 346 245" stroke="#3D2B2B" stroke-width="2.5" stroke-linecap="round" fill="none"/>
  <path d="M355 267 Q354 257 358 252" stroke="#3D2B2B" stroke-width="2.5" stroke-linecap="round" fill="none"/>

</svg>