<svg viewBox="226 250 150 74" fill="none" xmlns="http://www.w3.org/2000/svg">

  <!-- Left eye white - almond -->
  <path d="M236 287 C238 270 251 260 265 260 C279 260 292 270 294 287 C292 304 279 314 265 314 C251 314 238 304 236 287Z" fill="white" stroke="#B29797" stroke-width="4"/>
  <!-- Left iris -->
  <ellipse cx="270" cy="289" rx="15" ry="19" fill="#FF00FF"/>
  <!-- Right eye white - almond -->
  <path d="M308 287 C310 270 323 260 337 260 C351 260 364 270 366 287 C364 304 351 314 337 314 C323 314 310 304 308 287Z" fill="white" stroke="#B29797" stroke-width="4"/>
  <!-- Right iris -->
  <ellipse cx="342" cy="289" rx="15" ry="19" fill="#FF00FF"/>

</svg>