<svg viewBox="230 330 140 104" fill="none" xmlns="http://www.w3.org/2000/svg">

  <!-- Barba cheia - cobre bochechas e queixo -->
  <!-- Bigode -->
  <path d="M300 348C300 348 288 340 276 340C264 340 256 346 254 350C310 350 310 350 346 350C344 346 336 340 324 340C312 340 300 348 300 348Z" fill="#FF00FF"/>
  <!-- Barba cheia -->
  <path d="M254 350C248 354 244 360 242 368C240 378 242 388 248 396C254 404 264 412 278 418C290 422 300 424 300 424C300 424 310 422 322 418C336 412 346 404 352 396C358 388 360 378 358 368C356 360 352 354 346 350C340 354 330 358 300 358C270 358 260 354 254 350Z" fill="#FF00FF" stroke="#FF00FF" stroke-width="2" stroke-linejoin="round"/>

</svg>