<svg viewBox="246 332 108 78" fill="none" xmlns="http://www.w3.org/2000/svg">

  <!-- Barba curta / cavanhaque - contorno do queixo -->
  <!-- Bigode -->
  <path d="M300 348C300 348 290 342 278 342C268 342 260 346 258 348C256 350 258 351 260 349C264 346 270 344 278 344C290 344 298 348 300 350C302 348 310 344 322 344C330 344 336 346 340 349C342 351 344 350 342 348C340 346 332 342 322 342C310 342 300 348 300 348Z" fill="#FF00FF" stroke="#FF00FF" stroke-width="1.5" stroke-linejoin="round"/>
  <!-- Barba curta no queixo -->
  <path d="M272 362C268 366 266 372 268 378C270 384 276 390 284 394C292 398 300 400 300 400C300 400 308 398 316 394C324 390 330 384 332 378C334 372 332 366 328 362" fill="#FF00FF" stroke="#FF00FF" stroke-width="2" stroke-linejoin="round" stroke-linecap="round"/>

</svg>