<svg xmlns="http://www.w3.org/2000/svg" viewBox="0 0 600 800" fill="none">

  <path d="M191 158C176.641 158 165 169.641 165 184C165 198.359 176.641 210 191 210H217V158H191Z" fill="#FFFFFF" stroke="#E0E0E0" stroke-width="8"/>
  <path d="M410 158C424.36 158 436 169.641 436 184C436 198.359 424.36 210 410 210H384V158H410Z" fill="#FFFFFF" stroke="#E0E0E0" stroke-width="8"/>
  <path d="M325 76C371.392 76 409 113.608 409 160V200C409 246.392 371.392 284 325 284H275C228.608 284 191 246.392 191 200V160C191 113.608 228.608 76 275 76H325Z" fill="#FFFFFF" stroke="#E0E0E0" stroke-width="8"/>
  
</svg>
