<svg viewBox="0 0 600 800" fill="none" xmlns="http://www.w3.org/2000/svg">
  <path xmlns="http://www.w3.org/2000/svg" d="M0,800v-800h600v800z" id="imported-0" fill="none" fill-rule="nonzero" stroke="none" stroke-width="1" stroke-linecap="butt" stroke-linejoin="miter" stroke-miterlimit="10" stroke-dasharray="" stroke-dashoffset="0" font-family="none" font-weight="none" font-size="none" text-anchor="none" style="mix-blend-mode: normal"/>
  <path xmlns="http://www.w3.org/2000/svg" d="M188,268c-14.359,0 -26,11.641 -26,26c0,14.359 11.641,26 26,26h26v-52z" id="imported-1" fill="#ffffff" fill-rule="nonzero" stroke="#c0c0c0" stroke-width="8" stroke-linecap="butt" stroke-linejoin="miter" stroke-miterlimit="10" stroke-dasharray="" stroke-dashoffset="0" font-family="none" font-weight="none" font-size="none" text-anchor="none" style="mix-blend-mode: normal"/>
  <path xmlns="http://www.w3.org/2000/svg" d="M412,268c14.359,0 26,11.641 26,26c0,14.359 -11.641,26 -26,26h-26v-52z" id="imported-2" fill="#ffffff" fill-rule="nonzero" stroke="#c0c0c0" stroke-width="8" stroke-linecap="butt" stroke-linejoin="miter" stroke-miterlimit="10" stroke-dasharray="" stroke-dashoffset="0" font-family="none" font-weight="none" font-size="none" text-anchor="none" style="mix-blend-mode: normal"/>
  <path xmlns="http://www.w3.org/2000/svg" d="M255.56522,394c-20.98682,0 -51.91304,-17.01318 -51.91304,-38l-15.65217,-130c0,-20.98682 17.01318,-38 38,-38h148c20.98682,0 38,17.01318 38,38l-15.65217,130c0,20.98682 -30.92622,38 -51.91304,38z" id="imported-3" fill="#ffffff" fill-rule="nonzero" stroke="#c0c0c0" stroke-width="8" stroke-linecap="butt" stroke-linejoin="miter" stroke-miterlimit="10" stroke-dasharray="" stroke-dashoffset="0" font-family="none" font-weight="none" font-size="none" text-anchor="none" style="mix-blend-mode: normal"/>
</svg>