<svg viewBox="-10 -72 420 882" fill="none" xmlns="http://www.w3.org/2000/svg">

  <path xmlns="http://www.w3.org/2000/svg" d="M0,800v-800h600v800z" id="imported-0" fill="none" fill-rule="nonzero" stroke="none" stroke-width="1" stroke-linecap="butt" stroke-linejoin="miter" stroke-miterlimit="10" stroke-dasharray="" stroke-dashoffset="0" font-family="none" font-weight="none" font-size="none" text-anchor="none" style="mix-blend-mode: normal"/>
  <path xmlns="http://www.w3.org/2000/svg" d="M200,272c-14.359,0 -26,11.641 -26,26c0,14.359 11.641,26 26,26h22v-52z" id="imported-1" fill="#ffffff" fill-rule="nonzero" stroke="#c0c0c0" stroke-width="8" stroke-linecap="butt" stroke-linejoin="miter" stroke-miterlimit="10" stroke-dasharray="" stroke-dashoffset="0" font-family="none" font-weight="none" font-size="none" text-anchor="none" style="mix-blend-mode: normal"/>
  <path xmlns="http://www.w3.org/2000/svg" d="M400,272c14.359,0 26,11.641 26,26c0,14.359 -11.641,26 -26,26h-22v-52z" id="imported-2" fill="#ffffff" fill-rule="nonzero" stroke="#c0c0c0" stroke-width="8" stroke-linecap="butt" stroke-linejoin="miter" stroke-miterlimit="10" stroke-dasharray="" stroke-dashoffset="0" font-family="none" font-weight="none" font-size="none" text-anchor="none" style="mix-blend-mode: normal"/>
  <path xmlns="http://www.w3.org/2000/svg" d="M192.17391,290c0,-61.85589 10.85848,-111.13043 107.82609,-112c96.96761,-0.86957 107.82609,50.14411 107.82609,112c0,61.85589 -72.6087,112 -107.82609,112c-35.21739,0 -107.82609,-50.14411 -107.82609,-112z" id="imported-3" fill="#ffffff" fill-rule="nonzero" stroke="#c0c0c0" stroke-width="8" stroke-linecap="butt" stroke-linejoin="miter" stroke-miterlimit="10" stroke-dasharray="" stroke-dashoffset="0" font-family="none" font-weight="none" font-size="none" text-anchor="none" style="mix-blend-mode: normal"/>

</svg>