<svg viewBox="0 0 600 800" fill="none" xmlns="http://www.w3.org/2000/svg">
  <path xmlns="http://www.w3.org/2000/svg" d="M0,800v-800h600v800z" id="imported-0" fill="none" fill-rule="nonzero" stroke="none" stroke-width="1" stroke-linecap="butt" stroke-linejoin="miter" stroke-miterlimit="10" stroke-dasharray="" stroke-dashoffset="0" font-family="none" font-weight="none" font-size="none" text-anchor="none" style="mix-blend-mode: normal"/>
  <path xmlns="http://www.w3.org/2000/svg" d="M0,800v-800h600v800z" id="imported-1" fill="none" fill-rule="nonzero" stroke="none" stroke-width="1" stroke-linecap="butt" stroke-linejoin="miter" stroke-miterlimit="10" stroke-dasharray="" stroke-dashoffset="0" font-family="none" font-weight="none" font-size="none" text-anchor="none" style="mix-blend-mode: normal"/>
  <path xmlns="http://www.w3.org/2000/svg" d="M333.8,403.2l-33.8,33.6l-33.8,-33.6l-35.6,-0.8l-37.4,154.4c43.6,13.2 170,13.2 213.6,0l-37.4,-154.4z" id="imported-2" fill="#ff00ff" fill-rule="nonzero" stroke="#cc00cc" stroke-width="6" stroke-linecap="butt" stroke-linejoin="round" stroke-miterlimit="10" stroke-dasharray="" stroke-dashoffset="0" font-family="none" font-weight="none" font-size="none" text-anchor="none" style="mix-blend-mode: normal"/>
  <path xmlns="http://www.w3.org/2000/svg" d="M246,398.4l-50,8c-21.33333,6.66667 -30,20 -26,40c5.33333,14.66667 33.46667,1.6 50.8,-6.4l8.4,-18.8z" id="imported-3" fill="#ff00ff" fill-rule="nonzero" stroke="#cc00cc" stroke-width="5" stroke-linecap="butt" stroke-linejoin="round" stroke-miterlimit="10" stroke-dasharray="" stroke-dashoffset="0" font-family="none" font-weight="none" font-size="none" text-anchor="none" style="mix-blend-mode: normal"/>
  <path xmlns="http://www.w3.org/2000/svg" d="M352,400.4l50,8c21.33333,6.66667 30,20 26,40c-5.33333,14.66667 -31.86667,5.2 -49.2,-2.8l-10,-21.2z" id="imported-4" fill="#ff00ff" fill-rule="nonzero" stroke="#cc00cc" stroke-width="5" stroke-linecap="butt" stroke-linejoin="round" stroke-miterlimit="10" stroke-dasharray="" stroke-dashoffset="0" font-family="none" font-weight="none" font-size="none" text-anchor="none" style="mix-blend-mode: normal"/>
  <path xmlns="http://www.w3.org/2000/svg" d="M266,401.6l4.8,46.4l29.2,-16.4z" id="imported-5" fill="#ff00ff" fill-rule="nonzero" stroke="#cc00cc" stroke-width="4" stroke-linecap="butt" stroke-linejoin="miter" stroke-miterlimit="10" stroke-dasharray="" stroke-dashoffset="0" font-family="none" font-weight="none" font-size="none" text-anchor="none" style="mix-blend-mode: normal"/>
  <path xmlns="http://www.w3.org/2000/svg" d="M332.8,401.6l-5.2,46.8l-26.4,-16.4z" id="imported-6" fill="#ff00ff" fill-rule="nonzero" stroke="#cc00cc" stroke-width="4" stroke-linecap="butt" stroke-linejoin="miter" stroke-miterlimit="10" stroke-dasharray="" stroke-dashoffset="0" font-family="none" font-weight="none" font-size="none" text-anchor="none" style="mix-blend-mode: normal"/>
  <path xmlns="http://www.w3.org/2000/svg" d="M295,457.6c0,-2.76142 2.23858,-5 5,-5c2.76142,0 5,2.23858 5,5c0,2.76142 -2.23858,5 -5,5c-2.76142,0 -5,-2.23858 -5,-5z" id="imported-7" fill="#cc00cc" fill-rule="nonzero" stroke="none" stroke-width="1" stroke-linecap="butt" stroke-linejoin="miter" stroke-miterlimit="10" stroke-dasharray="" stroke-dashoffset="0" font-family="none" font-weight="none" font-size="none" text-anchor="none" style="mix-blend-mode: normal"/>
  <path xmlns="http://www.w3.org/2000/svg" d="M295,489.6c0,-2.76142 2.23858,-5 5,-5c2.76142,0 5,2.23858 5,5c0,2.76142 -2.23858,5 -5,5c-2.76142,0 -5,-2.23858 -5,-5z" id="imported-8" fill="#cc00cc" fill-rule="nonzero" stroke="none" stroke-width="1" stroke-linecap="butt" stroke-linejoin="miter" stroke-miterlimit="10" stroke-dasharray="" stroke-dashoffset="0" font-family="none" font-weight="none" font-size="none" text-anchor="none" style="mix-blend-mode: normal"/>
  <path xmlns="http://www.w3.org/2000/svg" d="M294.6,517.2c0,-2.76142 2.23858,-5 5,-5c2.76142,0 5,2.23858 5,5c0,2.76142 -2.23858,5 -5,5c-2.76142,0 -5,-2.23858 -5,-5z" id="imported-9" fill="#cc00cc" fill-rule="nonzero" stroke="none" stroke-width="1" stroke-linecap="butt" stroke-linejoin="miter" stroke-miterlimit="10" stroke-dasharray="" stroke-dashoffset="0" font-family="none" font-weight="none" font-size="none" text-anchor="none" style="mix-blend-mode: normal"/>
</svg>