<svg viewBox="0 0 600 800" fill="none" xmlns="http://www.w3.org/2000/svg">
  <path xmlns="http://www.w3.org/2000/svg" d="M0,800v-800h600v800z" id="imported-0" fill="none" fill-rule="nonzero" stroke="none" stroke-width="1" stroke-linecap="butt" stroke-linejoin="miter" stroke-miterlimit="10" stroke-dasharray="" stroke-dashoffset="0" font-family="none" font-weight="none" font-size="none" text-anchor="none" style="mix-blend-mode: normal"/>
  <path xmlns="http://www.w3.org/2000/svg" d="M0,800v-800h600v800z" id="imported-1" fill="none" fill-rule="nonzero" stroke="none" stroke-width="1" stroke-linecap="butt" stroke-linejoin="miter" stroke-miterlimit="10" stroke-dasharray="" stroke-dashoffset="0" font-family="none" font-weight="none" font-size="none" text-anchor="none" style="mix-blend-mode: normal"/>
  <path xmlns="http://www.w3.org/2000/svg" d="M0,800v-800h600v800z" id="imported-2" fill="none" fill-rule="nonzero" stroke="none" stroke-width="1" stroke-linecap="butt" stroke-linejoin="miter" stroke-miterlimit="10" stroke-dasharray="" stroke-dashoffset="0" font-family="none" font-weight="none" font-size="none" text-anchor="none" style="mix-blend-mode: normal"/>
  <path xmlns="http://www.w3.org/2000/svg" d="M270,404.35294c0,14 14,26 30,26c16,0 30,-12 30,-26c0,0 33.10053,-5.01059 54.31373,16.20261c21.2132,21.2132 61.41176,83.8366 61.41176,83.8366l-48.72549,20.96078l-12.66667,-67.94118l13.66667,114.94118c-54,18 -142,18 -196,0l13.66667,-114.94118l-12.66667,67.94118l-48.72549,-20.96078c0,0 40.19856,-62.6234 61.41176,-83.8366c21.2132,-21.2132 54.31373,-16.20261 54.31373,-16.20261z" id="imported-3" fill="#ff00ff" fill-rule="nonzero" stroke="#cc00cc" stroke-width="6" stroke-linecap="butt" stroke-linejoin="round" stroke-miterlimit="10" stroke-dasharray="" stroke-dashoffset="0" font-family="none" font-weight="none" font-size="none" text-anchor="none" style="mix-blend-mode: normal"/>
  <path xmlns="http://www.w3.org/2000/svg" d="M270,402c0,14 14,26 30,26c16,0 30,-12 30,-26" id="imported-4" fill="none" fill-rule="nonzero" stroke="#cc00cc" stroke-width="4" stroke-linecap="butt" stroke-linejoin="miter" stroke-miterlimit="10" stroke-dasharray="" stroke-dashoffset="0" font-family="none" font-weight="none" font-size="none" text-anchor="none" style="mix-blend-mode: normal"/>
</svg>