<svg xmlns="http://www.w3.org/2000/svg" viewBox="0 0 600 800" fill="none">
  <!-- Bigode guidao - grande com pontas curvadas para cima -->
  <path d="M300 350C300 350 288 340 274 340C258 340 248 346 242 352C236 358 230 362 226 358C222 354 226 348 232 342C240 334 254 330 274 332C290 334 298 342 300 346C302 342 310 334 326 332C346 330 360 334 368 342C374 348 378 354 374 358C370 362 364 358 358 352C352 346 342 340 326 340C312 340 300 350 300 350Z" fill="#FF00FF" stroke="#FF00FF" stroke-width="2" stroke-linejoin="round"/>
</svg>
