<svg width="600" height="800" viewBox="0 0 600 800" fill="none" xmlns="http://www.w3.org/2000/svg">

  <!-- Braids - front: center-parted with braid starts visible -->
  <!-- Hair cap -->
  <path d="M190 268 C188 228, 210 190, 260 178
    C282 174, 318 174, 340 178
    C390 190, 412 228, 410 268
    L408 285 C406 258, 390 225, 350 215
    C325 208, 275 208, 250 215
    C210 225, 194 258, 192 285 Z"
    fill="#FF00FF" stroke="#CC00CC" stroke-width="5"/>
  <!-- Center part line -->
  <line x1="300" y1="178" x2="300" y2="290" stroke="#CC00CC" stroke-width="2" opacity="0.3"/>
  <!-- Bangs (center-parted, fall to sides) -->
  <path d="M192 280 C210 270, 250 264, 295 268 L300 280
    L305 268 C350 264, 390 270, 408 280
    L405 295 C385 285, 345 280, 305 284 L300 295
    L295 284 C255 280, 215 285, 195 295 Z"
    fill="#FF00FF" stroke="#CC00CC" stroke-width="3"/>

</svg>
