<svg viewBox="0 0 600 800" fill="none" xmlns="http://www.w3.org/2000/svg">

  <!-- Franja cacheada: cap + round/curly bang sections -->
  <path d="M185 232 C182 202, 195 168, 225 154 C258 140, 342 140, 375 154 C405 168, 418 202, 415 232 Z"
    fill="#FF00FF" stroke="#CC00CC" stroke-width="6"/>
  <!-- Round/bouncy curly bang sections -->
  <path d="M195 225 C198 212, 215 205, 232 210 C248 215, 250 228, 242 235 C232 240, 212 238, 200 232 Z"
    fill="#FF00FF" stroke="#CC00CC" stroke-width="4"/>
  <path d="M238 218 C242 205, 262 198, 280 204 C298 210, 302 225, 292 232 C280 238, 258 235, 245 228 Z"
    fill="#FF00FF" stroke="#CC00CC" stroke-width="4"/>
  <path d="M288 215 C292 202, 315 196, 335 202 C352 208, 355 222, 345 230 C332 236, 308 233, 295 225 Z"
    fill="#FF00FF" stroke="#CC00CC" stroke-width="4"/>
  <path d="M340 220 C345 208, 368 202, 388 210 C405 218, 405 232, 395 237 C382 242, 358 238, 348 230 Z"
    fill="#FF00FF" stroke="#CC00CC" stroke-width="4"/>

</svg>
