<svg viewBox="0 0 400 500" fill="none" xmlns="http://www.w3.org/2000/svg">

  <!-- Solid cap covering top of head -->
  <path d="M85 200 C82 160, 90 110, 120 88 C150 72, 200 65, 250 72 C300 82, 318 110, 318 160 L315 200 Z" fill="#FF00FF" stroke="#CC00CC" stroke-width="4"/>
  <!-- Straight bangs bottom edge -->
  <path d="M88 195 L90 210 L115 207 L115 195 L140 207 L165 207 L165 192 L190 205 L210 205 L210 192 L235 207 L260 207 L260 195 L285 210 L290 210 L312 212 L315 195" fill="#FF00FF" stroke="#CC00CC" stroke-width="2"/>
  <!-- Side pieces framing face -->
  <path d="M85 200 C80 230, 75 265, 74 290 C78 282, 85 280, 92 284" fill="#FF00FF" stroke="#CC00CC" stroke-width="4"/>
  <path d="M315 200 C320 230, 325 265, 326 290 C322 282, 315 280, 308 284" fill="#FF00FF" stroke="#CC00CC" stroke-width="4"/>

</svg>
