<svg viewBox="0 0 400 500" fill="none" xmlns="http://www.w3.org/2000/svg">

  <!-- Solid poofy cap -->
  <path d="M80 200 C76 150, 88 95, 130 74 C160 60, 240 60, 270 74 C312 95, 324 150, 320 200 L315 200 C318 155, 308 110, 275 92 C248 80, 152 80, 125 92 C92 110, 82 155, 85 200 Z" fill="#FF00FF" stroke="#CC00CC" stroke-width="4"/>
  <!-- Inner fill to close the cap solid -->
  <path d="M85 200 C82 155, 92 110, 125 92 C152 80, 248 80, 275 92 C308 110, 318 155, 315 200 Z" fill="#FF00FF"/>
  <!-- Wavy bangs edge -->
  <path d="M85 195 C90 185, 102 178, 115 188 C125 198, 135 190, 148 180 C158 190, 165 198, 178 188 C188 178, 198 182, 208 192 C218 182, 228 178, 238 188 C248 198, 258 190, 268 180 C278 190, 288 198, 298 188 C308 178, 315 188, 318 198 L315 202 C308 195, 298 200, 288 195 C278 202, 268 198, 258 190 C248 198, 238 202, 228 195 C218 202, 208 198, 198 190 C188 198, 178 202, 168 195 C158 202, 148 198, 138 190 C128 198, 118 202, 108 195 C98 200, 88 198, 85 202 Z" fill="#FF00FF" stroke="#CC00CC" stroke-width="2"/>
  <!-- Side curls -->
  <path d="M82 205 C78 235, 70 265, 68 290" fill="#FF00FF" stroke="#CC00CC" stroke-width="4"/>
  <circle cx="70" cy="298" r="12" fill="#FF00FF" stroke="#CC00CC" stroke-width="3"/>
  <path d="M318 205 C322 235, 330 265, 332 290" fill="#FF00FF" stroke="#CC00CC" stroke-width="4"/>
  <circle cx="330" cy="298" r="12" fill="#FF00FF" stroke="#CC00CC" stroke-width="3"/>

</svg>
