<svg viewBox="0 0 600 800" fill="none" xmlns="http://www.w3.org/2000/svg">

  <!-- Repartido ao meio: cap + risca central + mechas caindo pros lados -->
  <path d="M180 240
    C178 210, 185 175, 210 160
    C240 145, 360 145, 390 160
    C415 175, 422 210, 420 240 Z"
    fill="#FF00FF" stroke="#CC00CC" stroke-width="6"/>
  <!-- Risca central -->
  <line x1="300" y1="150" x2="300" y2="240" stroke="#CC00CC" stroke-width="3" opacity="0.5"/>
  <!-- Mecha esquerda descendo -->
  <path d="M180 238 C185 228, 210 218, 250 215
    C275 214, 295 218, 298 225
    L298 240 C290 232, 268 226, 248 228
    C218 232, 195 240, 182 245 Z"
    fill="#FF00FF" stroke="#CC00CC" stroke-width="3"/>
  <!-- Mecha direita descendo -->
  <path d="M420 238 C415 228, 390 218, 350 215
    C325 214, 305 218, 302 225
    L302 240 C310 232, 332 226, 352 228
    C382 232, 405 240, 418 245 Z"
    fill="#FF00FF" stroke="#CC00CC" stroke-width="3"/>

</svg>
