<svg width="600" height="800" viewBox="0 0 600 800" fill="none" xmlns="http://www.w3.org/2000/svg">

  <!-- Short spiky - front: wild spikes shooting up -->
  <!-- Base cap -->
  <path d="M192 270 C190 240, 205 205, 250 190
    C278 182, 322 182, 350 190
    C395 205, 410 240, 408 270
    L406 285 C404 260, 392 232, 355 220
    C328 212, 272 212, 245 220
    C208 232, 196 260, 194 285 Z"
    fill="#FF00FF" stroke="#CC00CC" stroke-width="5"/>
  <!-- Spikes -->
  <path d="M220 260 L200 190 L240 248" fill="#FF00FF" stroke="#CC00CC" stroke-width="3"/>
  <path d="M248 245 L225 165 L265 235" fill="#FF00FF" stroke="#CC00CC" stroke-width="3"/>
  <path d="M270 238 L258 148 L290 228" fill="#FF00FF" stroke="#CC00CC" stroke-width="3"/>
  <path d="M300 235 L300 138 L310 228" fill="#FF00FF" stroke="#CC00CC" stroke-width="3"/>
  <path d="M325 238 L342 148 L338 235" fill="#FF00FF" stroke="#CC00CC" stroke-width="3"/>
  <path d="M350 245 L375 165 L362 240" fill="#FF00FF" stroke="#CC00CC" stroke-width="3"/>
  <path d="M375 258 L400 190 L388 252" fill="#FF00FF" stroke="#CC00CC" stroke-width="3"/>

</svg>
