<svg xmlns="http://www.w3.org/2000/svg" viewBox="0 0 180 320">
  <!-- Cape - colorizable #FF00FF - goes BEHIND body (low zIndex) -->
  <g>
    <!-- Cape collar -->
    <path d="M56,116 Q68,120 90,122 Q112,120 124,116 L126,120 L114,118 Q100,116 90,116 Q80,116 66,118 L54,120 Z" fill="#FF00FF" stroke="#CC00CC" stroke-width="1.5" stroke-linejoin="round"/>
    <!-- Left cape panel -->
    <path d="M54,120 Q48,126 44,140 L28,200 Q22,230 30,260 L38,274 Q40,278 44,276 L60,268 Q64,266 62,262 L56,240 Q50,210 54,180 Z" fill="#FF00FF" stroke="#CC00CC" stroke-width="1.5" stroke-linejoin="round"/>
    <!-- Right cape panel -->
    <path d="M126,120 Q132,126 136,140 L152,200 Q158,230 150,260 L142,274 Q140,278 136,276 L120,268 Q116,266 118,262 L124,240 Q130,210 126,180 Z" fill="#FF00FF" stroke="#CC00CC" stroke-width="1.5" stroke-linejoin="round"/>
    <!-- Center back cape -->
    <path d="M54,120 L54,180 Q54,220 62,250 L64,262 Q68,272 78,276 Q88,272 92,262 L94,250 Q102,220 102,180 L126,120 Q112,116 90,116 Q68,116 54,120 Z" fill="#FF00FF" stroke="#CC00CC" stroke-width="1.2" opacity="0.7"/>
    <!-- Cape flow lines -->
    <path d="M68,150 Q72,190 66,230" stroke="#CC00CC" stroke-width="0.6" opacity="0.3" fill="none"/>
    <path d="M90,130 Q90,190 90,250" stroke="#CC00CC" stroke-width="0.6" opacity="0.3" fill="none"/>
    <path d="M112,150 Q108,190 114,230" stroke="#CC00CC" stroke-width="0.6" opacity="0.3" fill="none"/>
  </g>
</svg>
