<svg xmlns="http://www.w3.org/2000/svg" viewBox="0 0 600 800" fill="none">

  <!-- Cape - colorizable -->
  <path d="M248 410 Q234 416 224 430 L172 568 Q158 610 180 650 L204 672
    Q220 682 240 672 L264 648 Q280 608 256 548 L248 410 Z"
    fill="#FF00FF" stroke="#CC00CC" stroke-width="5" stroke-linejoin="round"/>
  <path d="M352 410 Q366 416 376 430 L428 568 Q442 610 420 650 L396 672
    Q380 682 360 672 L336 648 Q320 608 344 548 L352 410 Z"
    fill="#FF00FF" stroke="#CC00CC" stroke-width="5" stroke-linejoin="round"/>
  <path d="M248 410 Q270 404 300 404 Q330 404 352 410 L352 548
    Q342 608 336 648 Q318 672 300 678 Q282 672 264 648
    Q258 608 248 548 Z"
    fill="#FF00FF" stroke="#CC00CC" stroke-width="3" opacity="0.6"/>

</svg>
