<svg xmlns="http://www.w3.org/2000/svg" viewBox="0 0 180 320">
  <!-- Fairy Wings - colorizable #FF00FF - goes BEHIND body -->
  <g fill="#FF00FF" fill-opacity="0.6" stroke="#FF00FF" stroke-width="1.2">
    <!-- Left upper wing -->
    <path d="M56,120 Q26,100 8,112 Q-6,122 2,144 Q10,164 44,162 Z" stroke-opacity="0.8"/>
    <!-- Left lower wing -->
    <path d="M54,162 Q18,170 10,190 Q4,210 16,220 Q28,228 48,210 Z" stroke-opacity="0.8"/>
    <!-- Right upper wing -->
    <path d="M124,120 Q154,100 172,112 Q186,122 178,144 Q170,164 136,162 Z" stroke-opacity="0.8"/>
    <!-- Right lower wing -->
    <path d="M126,162 Q162,170 170,190 Q176,210 164,220 Q152,228 132,210 Z" stroke-opacity="0.8"/>
    <!-- Wing vein details - left upper -->
    <path d="M54,124 Q32,114 14,120" fill="none" stroke="#FF00FF" stroke-width="0.6" stroke-opacity="0.5"/>
    <path d="M52,132 Q32,128 10,138" fill="none" stroke="#FF00FF" stroke-width="0.6" stroke-opacity="0.5"/>
    <path d="M50,142 Q36,144 20,156" fill="none" stroke="#FF00FF" stroke-width="0.6" stroke-opacity="0.5"/>
    <!-- Wing vein details - left lower -->
    <path d="M52,168 Q34,178 20,194" fill="none" stroke="#FF00FF" stroke-width="0.6" stroke-opacity="0.5"/>
    <path d="M50,180 Q38,190 26,206" fill="none" stroke="#FF00FF" stroke-width="0.6" stroke-opacity="0.5"/>
    <!-- Wing vein details - right upper -->
    <path d="M126,124 Q148,114 166,120" fill="none" stroke="#FF00FF" stroke-width="0.6" stroke-opacity="0.5"/>
    <path d="M128,132 Q148,128 170,138" fill="none" stroke="#FF00FF" stroke-width="0.6" stroke-opacity="0.5"/>
    <path d="M130,142 Q144,144 160,156" fill="none" stroke="#FF00FF" stroke-width="0.6" stroke-opacity="0.5"/>
    <!-- Wing vein details - right lower -->
    <path d="M128,168 Q146,178 160,194" fill="none" stroke="#FF00FF" stroke-width="0.6" stroke-opacity="0.5"/>
    <path d="M130,180 Q142,190 154,206" fill="none" stroke="#FF00FF" stroke-width="0.6" stroke-opacity="0.5"/>
    <!-- Sparkle accents -->
    <circle cx="24" cy="130" r="1.5" fill="#FFFFFF" opacity="0.6"/>
    <circle cx="156" cy="130" r="1.5" fill="#FFFFFF" opacity="0.6"/>
    <circle cx="18" cy="200" r="1.2" fill="#FFFFFF" opacity="0.5"/>
    <circle cx="162" cy="200" r="1.2" fill="#FFFFFF" opacity="0.5"/>
    <circle cx="40" cy="112" r="1" fill="#FFFFFF" opacity="0.4"/>
    <circle cx="140" cy="112" r="1" fill="#FFFFFF" opacity="0.4"/>
  </g>
</svg>
