<svg xmlns="http://www.w3.org/2000/svg" viewBox="162 668 276 64" fill="none">

  <!-- Left shoe -->
  <path d="M294 715C294 719.971 289.971 724 285 724L180 724C175.029 724 171 719.971 171 715L171 700C171 686.745 181.745 676 195 676L270 676L270.619 676.008C283.588 676.336 294 686.952 294 700L294 715Z" fill="#FF00FF" stroke="#CC00CC" stroke-width="8"/>
  <!-- Right shoe -->
  <path d="M429 715C429 719.971 424.971 724 420 724L315 724C310.029 724 306 719.971 306 715L306 700C306 686.745 316.745 676 330 676L405 676L405.619 676.008C418.588 676.336 429 686.952 429 700L429 715Z" fill="#FF00FF" stroke="#CC00CC" stroke-width="8"/>
  
</svg>
