<svg width="600" height="800" viewBox="0 0 600 800" fill="none" xmlns="http://www.w3.org/2000/svg">

  <!-- Braids - back: two braided tails -->
  <!-- Left braid -->
  <path d="M210 260 L200 290 L215 310 L200 335 L215 355 L200 380
    L215 400 L200 425 L215 445 L205 465 C200 475, 210 480, 218 475
    L228 445 L218 425 L230 400 L218 380 L230 355 L218 335 L230 310
    L218 290 L228 260 Z"
    fill="#FF00FF" stroke="#CC00CC" stroke-width="3"/>
  <!-- Left braid tie -->
  <circle cx="210" cy="472" r="10" fill="#CC00CC" opacity="0.4"/>
  <!-- Right braid -->
  <path d="M390 260 L400 290 L385 310 L400 335 L385 355 L400 380
    L385 400 L400 425 L385 445 L395 465 C400 475, 390 480, 382 475
    L372 445 L382 425 L370 400 L382 380 L370 355 L382 335 L370 310
    L382 290 L372 260 Z"
    fill="#FF00FF" stroke="#CC00CC" stroke-width="3"/>
  <circle cx="390" cy="472" r="10" fill="#CC00CC" opacity="0.4"/>
  <!-- Back head connecting -->
  <path d="M228 195 C260 185, 340 185, 372 195
    L375 270 C375 278, 368 280, 362 278 L300 265 L238 278
    C232 280, 225 278, 225 270 Z"
    fill="#FF00FF" stroke="#CC00CC" stroke-width="5"/>

</svg>
