<svg viewBox="0 0 600 800" fill="none" xmlns="http://www.w3.org/2000/svg">
  <path xmlns="http://www.w3.org/2000/svg" d="M0,800v-800h600v800z" id="imported-0" fill="none" fill-rule="nonzero" stroke="none" stroke-width="1" stroke-linecap="butt" stroke-linejoin="miter" stroke-miterlimit="10" stroke-dasharray="" stroke-dashoffset="0" font-family="none" font-weight="none" font-size="none" text-anchor="none" style="mix-blend-mode: normal"/>
  <path xmlns="http://www.w3.org/2000/svg" d="M161.25,260c0,-71.79702 66.95298,-123.75 138.75,-123.75c71.79702,0 138.75,51.95298 138.75,123.75c0,71.79702 -15.70298,156.25 -137.5,156.25c-121.79702,0 -140,-84.45298 -140,-156.25z" id="imported-1" fill="#ff00ff" fill-rule="nonzero" stroke="#cc00cc" stroke-width="3" stroke-linecap="butt" stroke-linejoin="miter" stroke-miterlimit="10" stroke-dasharray="" stroke-dashoffset="0" font-family="none" font-weight="none" font-size="none" text-anchor="none" style="mix-blend-mode: normal"/>
  <path xmlns="http://www.w3.org/2000/svg" d="M193,148c0,-23.19596 18.80404,-42 42,-42c23.19596,0 42,18.80404 42,42c0,23.19596 -18.80404,42 -42,42c-23.19596,0 -42,-18.80404 -42,-42z" id="imported-2" fill="#ff00ff" fill-rule="nonzero" stroke="#cc00cc" stroke-width="3" stroke-linecap="butt" stroke-linejoin="miter" stroke-miterlimit="10" stroke-dasharray="" stroke-dashoffset="0" font-family="none" font-weight="none" font-size="none" text-anchor="none" style="mix-blend-mode: normal"/>
  <path xmlns="http://www.w3.org/2000/svg" d="M323,148c0,-23.19596 18.80404,-42 42,-42c23.19596,0 42,18.80404 42,42c0,23.19596 -18.80404,42 -42,42c-23.19596,0 -42,-18.80404 -42,-42z" id="imported-3" fill="#ff00ff" fill-rule="nonzero" stroke="#cc00cc" stroke-width="3" stroke-linecap="butt" stroke-linejoin="miter" stroke-miterlimit="10" stroke-dasharray="" stroke-dashoffset="0" font-family="none" font-weight="none" font-size="none" text-anchor="none" style="mix-blend-mode: normal"/>
</svg>