<svg viewBox="0 0 600 800" fill="none" xmlns="http://www.w3.org/2000/svg">

  <!-- Longo ondulado: wavy curtains on sides with volume -->
  <path d="M188 200 C192 168, 232 148, 300 146 C368 148, 408 168, 412 200 L412 212 L188 212 Z"
    fill="#FF00FF" stroke="#CC00CC" stroke-width="6"/>
  <!-- Left wavy curtain -->
  <path d="M188 205
    C178 220, 165 260, 158 305
    C152 345, 155 380, 162 405
    C168 425, 158 448, 150 475
    C145 505, 148 535, 158 555
    C168 572, 180 568, 185 555
    C190 535, 188 508, 185 480
    C182 455, 190 430, 198 405
    C205 380, 202 348, 200 310
    C198 270, 200 240, 208 218 Z"
    fill="#FF00FF" stroke="#CC00CC" stroke-width="6"/>
  <!-- Right wavy curtain -->
  <path d="M412 205
    C422 220, 435 260, 442 305
    C448 345, 445 380, 438 405
    C432 425, 442 448, 450 475
    C455 505, 452 535, 442 555
    C432 572, 420 568, 415 555
    C410 535, 412 508, 415 480
    C418 455, 410 430, 402 405
    C395 380, 398 348, 400 310
    C402 270, 400 240, 392 218 Z"
    fill="#FF00FF" stroke="#CC00CC" stroke-width="6"/>

</svg>
