<svg viewBox="0 0 600 800" fill="none" xmlns="http://www.w3.org/2000/svg">

  <!-- Longo enrolado: cachos bem definidos tipo espiral -->
  <path d="M215 185 C242 175, 358 175, 385 185
    L390 400 C390 415, 378 425, 365 422
    L235 422 C222 425, 210 415, 210 400 Z"
    fill="#FF00FF" stroke="#CC00CC" stroke-width="6"/>
  <!-- Espirais/cachos longos esquerda -->
  <path d="M185 235 C170 268, 155 320, 155 380
    C155 420, 162 452, 175 478
    C168 492, 178 498, 185 492
    C178 478, 172 458, 170 430
    C168 400, 162 370, 165 338
    C170 360, 178 388, 185 405
    C192 438, 195 475, 188 510
    C182 535, 195 545, 205 538
    L208 340 C212 285, 222 248, 232 225 Z"
    fill="#FF00FF" stroke="#CC00CC" stroke-width="6"/>
  <!-- Espirais/cachos longos direita -->
  <path d="M415 235 C430 268, 445 320, 445 380
    C445 420, 438 452, 425 478
    C432 492, 422 498, 415 492
    C422 478, 428 458, 430 430
    C432 400, 438 370, 435 338
    C430 360, 422 388, 415 405
    C408 438, 405 475, 412 510
    C418 535, 405 545, 395 538
    L392 340 C388 285, 378 248, 368 225 Z"
    fill="#FF00FF" stroke="#CC00CC" stroke-width="6"/>

</svg>
