<svg viewBox="0 0 600 800" fill="none" xmlns="http://www.w3.org/2000/svg">

  <!-- Medio liso: liso ate os ombros -->
  <path d="M210 185 C240 175, 360 175, 390 185
    L395 445 C395 465, 375 478, 350 480
    L250 480 C225 478, 205 465, 205 445 Z"
    fill="#FF00FF" stroke="#CC00CC" stroke-width="6"/>
  <path d="M188 220 C175 250, 168 300, 166 345
    L164 430 C164 448, 175 455, 188 452
    L200 448 L202 310 C205 268, 215 238, 225 218 Z"
    fill="#FF00FF" stroke="#CC00CC" stroke-width="6"/>
  <path d="M412 220 C425 250, 432 300, 434 345
    L436 430 C436 448, 425 455, 412 452
    L400 448 L398 310 C395 268, 385 238, 375 218 Z"
    fill="#FF00FF" stroke="#CC00CC" stroke-width="6"/>

</svg>
