<svg viewBox="0 0 600 800" fill="none" xmlns="http://www.w3.org/2000/svg">

  <!-- Medio: sides to shoulder level, rounder shape -->
  <path d="M190 200 C195 170, 232 150, 300 148 C368 150, 405 170, 410 200 L410 212 L190 212 Z"
    fill="#FF00FF" stroke="#CC00CC" stroke-width="6"/>
  <!-- Left side to shoulder -->
  <path d="M190 205
    C180 218, 170 248, 166 285
    C162 325, 164 365, 170 395
    C176 420, 188 430, 200 425
    C208 418, 210 400, 208 375
    L205 310 C204 278, 206 250, 212 228 Z"
    fill="#FF00FF" stroke="#CC00CC" stroke-width="6"/>
  <!-- Right side to shoulder -->
  <path d="M410 205
    C420 218, 430 248, 434 285
    C438 325, 436 365, 430 395
    C424 420, 412 430, 400 425
    C392 418, 390 400, 392 375
    L395 310 C396 278, 394 250, 388 228 Z"
    fill="#FF00FF" stroke="#CC00CC" stroke-width="6"/>

</svg>
