<svg xmlns="http://www.w3.org/2000/svg" viewBox="0 0 600 800" fill="none">

  <mask id="mouth-mask" fill="white">
    <path d="M325 333C327.761 333 330 335.239 330 338V338C330 354.569 316.569 368 300 368V368C283.431 368 270 354.569 270 338V338C270 335.239 272.239 333 275 333L325 333Z"/>
  </mask>
  <path d="M325 333C327.761 333 330 335.239 330 338V338C330 354.569 316.569 368 300 368V368C283.431 368 270 354.569 270 338V338C270 335.239 272.239 333 275 333L325 333Z" fill="#FFFFFF" stroke="#FFA7A7" stroke-width="16" mask="url(#mouth-mask)"/>
  
</svg>
