<svg xmlns="http://www.w3.org/2000/svg" viewBox="0 0 600 800" fill="none">

  <!-- Left boot: shaft (upper part around the ankle/shin) -->
  <path d="M264 692C264 695.314 261.314 698 258 698L207 698C203.686 698 201 695.314 201 692L201 636C201 627.716 207.716 621 216 621L249 621C257.284 621 264 627.716 264 636L264 692Z" fill="#FF00FF" stroke="#CC00CC" stroke-width="8"/>
  <!-- Left boot: foot/sole -->
  <path d="M294 715C294 719.971 289.971 724 285 724L180 724C175.029 724 171 719.971 171 715L171 700C171 686.745 181.745 676 195 676L270 676L270.619 676.008C283.588 676.336 294 686.952 294 700L294 715Z" fill="#FF00FF" stroke="#CC00CC" stroke-width="8"/>

  <!-- Right boot: shaft -->
  <path d="M399 692C399 695.314 396.314 698 393 698L342 698C338.686 698 336 695.314 336 692L336 636C336 627.716 342.716 621 351 621L384 621C392.284 621 399 627.716 399 636L399 692Z" fill="#FF00FF" stroke="#CC00CC" stroke-width="8"/>
  <!-- Right boot: foot/sole -->
  <path d="M429 715C429 719.971 424.971 724 420 724L315 724C310.029 724 306 719.971 306 715L306 700C306 686.745 316.745 676 330 676L405 676L405.619 676.008C418.588 676.336 429 686.952 429 700L429 715Z" fill="#FF00FF" stroke="#CC00CC" stroke-width="8"/>

</svg>
