<svg xmlns="http://www.w3.org/2000/svg" viewBox="0 0 180 320">
  <!-- Ballet Flats / Mary Janes: left cx=58 cy=302, right cx=122 cy=302 -->
  <!-- Left flat -->
  <path d="
    M 44,298
    Q 42,294 46,292
    L 64,290
    Q 72,290 74,294
    L 76,300
    Q 76,306 72,308
    L 68,312
    Q 64,314 58,314
    L 50,314
    Q 42,314 42,308
    L 42,302
    Z
  " fill="#FF00FF" stroke="#CC00CC" stroke-width="1.2" stroke-linejoin="round"/>
  <!-- Left sole line -->
  <path d="M 42,310 Q 42,314 50,314 L 58,314 Q 64,314 68,312" fill="none" stroke="#CC00CC" stroke-width="1"/>
  <!-- Left strap (mary jane) -->
  <path d="M 52,296 Q 58,302 66,298" fill="none" stroke="#CC00CC" stroke-width="1.8" stroke-linecap="round"/>
  <!-- Left button -->
  <circle cx="66" cy="298" r="1.8" fill="#CC00CC"/>
  <!-- Left toe detail -->
  <path d="M 44,300 Q 44,296 48,294" fill="none" stroke="#CC00CC" stroke-width="0.6" opacity="0.4"/>

  <!-- Right flat -->
  <path d="
    M 108,298
    Q 106,294 110,292
    L 128,290
    Q 136,290 138,294
    L 140,300
    Q 140,306 136,308
    L 132,312
    Q 128,314 122,314
    L 114,314
    Q 106,314 106,308
    L 106,302
    Z
  " fill="#FF00FF" stroke="#CC00CC" stroke-width="1.2" stroke-linejoin="round"/>
  <!-- Right sole line -->
  <path d="M 106,310 Q 106,314 114,314 L 122,314 Q 128,314 132,312" fill="none" stroke="#CC00CC" stroke-width="1"/>
  <!-- Right strap (mary jane) -->
  <path d="M 116,296 Q 122,302 130,298" fill="none" stroke="#CC00CC" stroke-width="1.8" stroke-linecap="round"/>
  <!-- Right button -->
  <circle cx="130" cy="298" r="1.8" fill="#CC00CC"/>
  <!-- Right toe detail -->
  <path d="M 108,300 Q 108,296 112,294" fill="none" stroke="#CC00CC" stroke-width="0.6" opacity="0.4"/>
</svg>
