<svg xmlns="http://www.w3.org/2000/svg" viewBox="0 0 600 800" fill="none">

  <!-- Tiara - NOT colorizable -->
  <path d="M238 220 Q260 210 280 206 Q290 204 300 200 Q310 204 320 206 Q340 210 362 220"
    fill="none" stroke="#FFD700" stroke-width="5" stroke-linecap="round"/>
  <!-- Tiara points -->
  <path d="M268 210 L264 196 L274 206" fill="#FFD700" stroke="#B8860B" stroke-width="2" stroke-linejoin="round"/>
  <path d="M284 207 L280 190 L290 203" fill="#FFD700" stroke="#B8860B" stroke-width="2" stroke-linejoin="round"/>
  <path d="M300 204 L296 182 L300 178 L304 182 L300 204" fill="#FFD700" stroke="#B8860B" stroke-width="2" stroke-linejoin="round"/>
  <path d="M316 207 L320 190 L310 203" fill="#FFD700" stroke="#B8860B" stroke-width="2" stroke-linejoin="round"/>
  <path d="M332 210 L336 196 L326 206" fill="#FFD700" stroke="#B8860B" stroke-width="2" stroke-linejoin="round"/>
  <!-- Center gem -->
  <circle cx="300" cy="188" r="5" fill="#FF69B4" stroke="#B8860B" stroke-width="1.5"/>
  <!-- Side gems -->
  <circle cx="280" cy="198" r="3.5" fill="#FF69B4" stroke="#B8860B" stroke-width="1"/>
  <circle cx="320" cy="198" r="3.5" fill="#FF69B4" stroke="#B8860B" stroke-width="1"/>

</svg>
