<svg xmlns="http://www.w3.org/2000/svg" viewBox="0 0 600 800" fill="none">

  <!-- Tiara -->
  <path d="M230 222 Q258 210 282 206 Q292 203 300 198 Q308 203 318 206 Q342 210 370 222"
    fill="none" stroke="#FFD700" stroke-width="6" stroke-linecap="round"/>
  <path d="M264 212 L258 194 L272 208" fill="#FFD700" stroke="#B8860B" stroke-width="2.5" stroke-linejoin="round"/>
  <path d="M282 208 L276 186 L290 204" fill="#FFD700" stroke="#B8860B" stroke-width="2.5" stroke-linejoin="round"/>
  <path d="M300 204 L294 178 L300 172 L306 178 L300 204" fill="#FFD700" stroke="#B8860B" stroke-width="2.5" stroke-linejoin="round"/>
  <path d="M318 208 L324 186 L310 204" fill="#FFD700" stroke="#B8860B" stroke-width="2.5" stroke-linejoin="round"/>
  <path d="M336 212 L342 194 L328 208" fill="#FFD700" stroke="#B8860B" stroke-width="2.5" stroke-linejoin="round"/>
  <circle cx="300" cy="185" r="6" fill="#FF69B4" stroke="#B8860B" stroke-width="2"/>
  <circle cx="276" cy="196" r="4.5" fill="#FF69B4" stroke="#B8860B" stroke-width="1.5"/>
  <circle cx="324" cy="196" r="4.5" fill="#FF69B4" stroke="#B8860B" stroke-width="1.5"/>

</svg>
